HIERARCHY
ROOT joint_Root
{
	OFFSET 0.0 0.0 0.0
	CHANNELS 6 Xposition Yposition Zposition Zrotation Xrotation Yrotation 
	JOINT Hips
	{
		OFFSET -17.1583 93.1646 452.98
		CHANNELS 6 Xposition Yposition Zposition Zrotation Xrotation Yrotation 
		JOINT Spine
		{
			OFFSET 15.7357 0.0 0.0
			CHANNELS 6 Xposition Yposition Zposition Zrotation Xrotation Yrotation 
			JOINT Chest
			{
				OFFSET 8.98455 -0.406207 0.0
				CHANNELS 6 Xposition Yposition Zposition Zrotation Xrotation Yrotation 
				JOINT Neck
				{
					OFFSET 16.3773 0.0 0.0
					CHANNELS 6 Xposition Yposition Zposition Zrotation Xrotation Yrotation 
					JOINT Head
					{
						OFFSET 6.45672 0.0 0.0
						CHANNELS 6 Xposition Yposition Zposition Zrotation Xrotation Yrotation 
						End Site
						{
							OFFSET 0.0 0.0 0.0
						}
					}
				}
				JOINT Shoulder_L
				{
					OFFSET 12.9942 -0.242716 4.98039
					CHANNELS 6 Xposition Yposition Zposition Zrotation Xrotation Yrotation 
					JOINT UpperArm_L
					{
						OFFSET 5.34809 0.0 0.0
						CHANNELS 6 Xposition Yposition Zposition Zrotation Xrotation Yrotation 
						JOINT LowerArm_L
						{
							OFFSET 24.3286 1.87007e-05 0.0
							CHANNELS 6 Xposition Yposition Zposition Zrotation Xrotation Yrotation 
							JOINT Hand_L
							{
								OFFSET 22.2916 0.0 0.0
								CHANNELS 6 Xposition Yposition Zposition Zrotation Xrotation Yrotation 
								End Site
								{
									OFFSET 0.0 0.0 0.0
								}
							}
						}
					}
				}
				JOINT Shoulder_R
				{
					OFFSET 12.9945 -0.242716 -4.98039
					CHANNELS 6 Xposition Yposition Zposition Zrotation Xrotation Yrotation 
					JOINT UpperArm_R
					{
						OFFSET -5.34813 0.0 0.0
						CHANNELS 6 Xposition Yposition Zposition Zrotation Xrotation Yrotation 
						JOINT LowerArm_R
						{
							OFFSET -24.3289 0.000322201 0.0
							CHANNELS 6 Xposition Yposition Zposition Zrotation Xrotation Yrotation 
							JOINT Hand_R
							{
								OFFSET -22.2915 -0.000108084 0.0
								CHANNELS 6 Xposition Yposition Zposition Zrotation Xrotation Yrotation 
								End Site
								{
									OFFSET 0.0 0.0 0.0
								}
							}
						}
					}
				}
			}
		}
		JOINT UpperLeg_L
		{
			OFFSET -2.19248 -6.46944 0.0
			CHANNELS 6 Xposition Yposition Zposition Zrotation Xrotation Yrotation 
			JOINT LowerLeg_L
			{
				OFFSET 39.0811 0.0 -1.23785e-05
				CHANNELS 6 Xposition Yposition Zposition Zrotation Xrotation Yrotation 
				JOINT Foot_L
				{
					OFFSET 40.9854 0.0 -1.26872e-05
					CHANNELS 6 Xposition Yposition Zposition Zrotation Xrotation Yrotation 
					JOINT Toes_L
					{
						OFFSET 11.7543 0.0 0.0
						CHANNELS 6 Xposition Yposition Zposition Zrotation Xrotation Yrotation 
						End Site
						{
							OFFSET 0.0 0.0 0.0
						}
					}
				}
			}
		}
		JOINT UpperLeg_R
		{
			OFFSET -2.19251 6.46944 0.0
			CHANNELS 6 Xposition Yposition Zposition Zrotation Xrotation Yrotation 
			JOINT LowerLeg_R
			{
				OFFSET -39.0811 -0.00228153 -0.0401928
				CHANNELS 6 Xposition Yposition Zposition Zrotation Xrotation Yrotation 
				JOINT Foot_R
				{
					OFFSET -40.9854 0.0 0.0
					CHANNELS 6 Xposition Yposition Zposition Zrotation Xrotation Yrotation 
					JOINT Toes_R
					{
						OFFSET -11.7543 0.0 0.0
						CHANNELS 6 Xposition Yposition Zposition Zrotation Xrotation Yrotation 
						End Site
						{
							OFFSET 0.0 0.0 0.0
						}
					}
				}
			}
		}
	}
}
MOTION
Frames:	9
Frame Time:	0.0333333
0.000000 0.000000 0.000000 0.000000 0.000000 -0.000000 -4.545560 91.745300 -1.473070 83.605000 2.014570 5.314780 15.735700 0.000005 -0.000001 61.927500 86.662900 -59.651400 8.984550 -0.406207 -0.000000 -1.807790 -3.330080 4.499800 16.377300 -0.000001 -0.000001 9.658060 -0.452038 3.260370 6.456720 -0.000001 -0.000000 5.038760 -0.266298 10.652100 12.994200 -0.242716 4.980390 -92.495000 7.099910 -70.580700 5.348090 -0.000007 -0.000001 -72.980100 27.390800 1.716360 24.328600 0.000019 0.000005 13.412500 30.091900 -25.436000 22.291600 -0.000001 0.000005 -4.351670 5.057320 6.075480 12.994500 -0.242716 -4.980390 87.775000 6.308510 -70.527400 -5.348130 -0.000001 -0.000004 -67.857400 -14.197700 -4.240850 -24.328900 0.000322 -0.000009 15.837200 -17.906000 -137.303000 -22.291500 -0.000108 -0.000004 64.994500 5.532520 -7.909720 -2.192480 -6.469440 -0.000000 -170.519000 6.493200 -4.387160 39.081100 -0.000007 -0.000012 0.402458 -0.709245 29.573500 40.985400 -0.000006 -0.000013 -0.072256 8.935140 -76.631500 11.754300 -0.000000 0.000003 0.000759 0.153679 -10.344200 -2.192510 6.469440 -0.000001 -169.108000 9.743690 -176.515000 -39.081100 -0.002282 -0.040193 0.137893 -0.467371 16.062300 -40.985400 0.000008 0.000006 5.903610 -0.411157 -70.918000 -11.754300 -0.000006 -0.000006 -0.008286 0.258016 -6.094190
0.000000 0.000000 0.000000 0.000000 0.000000 -0.000000 -4.562070 91.737500 -1.445370 83.612600 1.965680 5.310630 15.735700 0.000005 -0.000001 61.842100 86.658700 -59.553900 8.984550 -0.406207 -0.000000 -1.804420 -3.343750 4.523730 16.377300 -0.000001 -0.000001 9.667830 -0.415677 3.273570 6.456720 -0.000001 -0.000000 5.045010 -0.215316 10.630700 12.994200 -0.242716 4.980390 -92.484300 7.065810 -70.572000 5.348090 -0.000007 -0.000001 -73.068700 27.195300 1.743130 24.328600 0.000019 0.000005 13.365200 30.078400 -25.363700 22.291600 -0.000001 0.000005 -4.270090 5.056260 6.098940 12.994500 -0.242716 -4.980390 87.762400 6.347120 -70.534500 -5.348130 -0.000001 -0.000004 -67.437200 -13.570600 -4.219980 -24.328900 0.000322 -0.000009 22.364700 -24.423800 -135.141000 -22.291500 -0.000108 -0.000004 64.638800 5.637080 -13.896200 -2.192480 -6.469440 -0.000000 -170.529000 6.471150 -4.366300 39.081100 -0.000007 -0.000012 0.408580 -0.719381 29.595900 40.985400 -0.000006 -0.000013 -0.079390 8.904300 -76.685500 11.754300 -0.000000 0.000003 0.000785 0.153148 -10.365800 -2.192510 6.469440 -0.000001 -169.107000 9.702690 -176.519000 -39.081100 -0.002282 -0.040193 0.138673 -0.468770 16.104900 -40.985400 0.000008 0.000006 5.907160 -0.426073 -70.919200 -11.754300 -0.000006 -0.000006 -0.008171 0.257087 -6.132130
0.000000 0.000000 0.000000 0.000000 0.000000 -0.000000 -4.580650 91.743300 -1.428990 83.597600 1.912730 5.289190 15.735700 0.000005 -0.000001 61.925500 86.660000 -59.639900 8.984550 -0.406207 -0.000000 -1.802320 -3.333740 4.518740 16.377300 -0.000001 -0.000001 9.656860 -0.405837 3.406370 6.456720 -0.000001 -0.000000 5.056740 -0.187293 10.717200 12.994200 -0.242716 4.980390 -92.478500 7.048580 -70.570300 5.348090 -0.000007 -0.000001 -73.081700 27.136400 1.764220 24.328600 0.000019 0.000005 13.372800 30.092100 -25.367600 22.291600 -0.000001 0.000005 -4.166790 5.058820 6.042090 12.994500 -0.242716 -4.980390 87.747700 6.389450 -70.535800 -5.348130 -0.000001 -0.000004 -67.092300 -13.386300 -4.407010 -24.328900 0.000322 -0.000009 26.339600 -28.124600 -133.595000 -22.291500 -0.000108 -0.000004 64.481800 5.673920 -18.050200 -2.192480 -6.469440 -0.000000 -170.487000 6.402710 -4.345170 39.081100 -0.000007 -0.000012 0.407387 -0.718466 29.555200 40.985400 -0.000006 -0.000013 -0.093569 8.922530 -76.696400 11.754300 -0.000000 0.000003 0.000657 0.155719 -10.261400 -2.192510 6.469440 -0.000001 -169.079000 9.721940 -176.471000 -39.081100 -0.002282 -0.040193 0.136746 -0.465334 15.998500 -40.985400 0.000008 0.000006 5.927680 -0.394872 -70.906200 -11.754300 -0.000006 -0.000006 -0.008335 0.258411 -6.078040
0.000000 0.000000 0.000000 0.000000 0.000000 -0.000000 -4.597450 91.730600 -1.425460 83.612000 1.931640 5.251720 15.735700 0.000005 -0.000001 62.161200 86.665500 -59.915900 8.984550 -0.406207 -0.000000 -1.801180 -3.300910 4.438620 16.377300 -0.000001 -0.000001 9.583140 -0.449801 3.640250 6.456720 -0.000001 -0.000000 5.094530 -0.215159 10.929700 12.994200 -0.242716 4.980390 -92.451200 6.984650 -70.606600 5.348090 -0.000007 -0.000001 -73.077500 27.263400 1.679120 24.328600 0.000019 0.000005 13.425700 30.126800 -25.435300 22.291600 -0.000001 0.000005 -4.196140 5.058280 6.054050 12.994500 -0.242716 -4.980390 87.745600 6.409070 -70.573600 -5.348130 -0.000001 -0.000004 -66.878100 -13.333000 -4.604130 -24.328900 0.000322 -0.000009 26.493200 -28.237400 -133.507000 -22.291500 -0.000108 -0.000004 64.758000 5.676680 -18.629600 -2.192480 -6.469440 -0.000000 -170.495000 6.446980 -4.408810 39.081100 -0.000007 -0.000012 0.408988 -0.719767 29.607300 40.985400 -0.000006 -0.000013 -0.103571 8.903750 -76.708400 11.754300 -0.000000 0.000003 0.000703 0.154817 -10.298000 -2.192510 6.469440 -0.000001 -169.096000 9.809400 -176.553000 -39.081100 -0.002282 -0.040193 0.138184 -0.467398 16.094300 -40.985400 0.000008 0.000006 5.961010 -0.274756 -70.893800 -11.754300 -0.000006 -0.000006 -0.008002 0.255718 -6.188030
0.000000 0.000000 0.000000 0.000000 0.000000 -0.000000 -4.613820 91.737500 -1.417160 83.565300 1.977040 5.248440 15.735700 0.000005 -0.000001 62.337300 86.661300 -60.105300 8.984550 -0.406207 -0.000000 -1.784870 -3.285280 4.412780 16.377300 -0.000001 -0.000001 9.624830 -0.499158 3.794290 6.456720 -0.000001 -0.000000 4.982480 -0.254417 11.181500 12.994200 -0.242716 4.980390 -92.458300 7.008320 -70.615000 5.348090 -0.000007 -0.000001 -73.029000 27.340700 1.632520 24.328600 0.000019 0.000005 13.347200 29.919000 -25.439700 22.291600 -0.000001 0.000005 -4.251730 5.057430 6.073000 12.994500 -0.242716 -4.980390 87.795400 6.299500 -70.667000 -5.348130 -0.000001 -0.000004 -67.168300 -13.954900 -4.794120 -24.328900 0.000322 -0.000009 23.426900 -25.203600 -134.502000 -22.291500 -0.000108 -0.000004 64.817200 5.668920 -17.216700 -2.192480 -6.469440 -0.000000 -170.434000 6.500850 -4.418800 39.081100 -0.000007 -0.000012 0.408691 -0.719647 29.593500 40.985400 -0.000006 -0.000013 -0.115126 8.926580 -76.712800 11.754300 -0.000000 0.000003 0.000690 0.155070 -10.287800 -2.192510 6.469440 -0.000001 -169.027000 9.817060 -176.492000 -39.081100 -0.002282 -0.040193 0.137673 -0.469686 15.962400 -40.985400 0.000008 0.000006 5.962660 -0.331155 -70.921300 -11.754300 -0.000006 -0.000006 -0.008558 0.260199 -6.005000
0.000000 0.000000 0.000000 0.000000 0.000000 -0.000000 -4.621370 91.740800 -1.433330 83.553200 2.043160 5.161100 15.735700 0.000005 -0.000001 62.672600 86.668400 -60.482600 8.984550 -0.406207 -0.000000 -1.781670 -3.240530 4.329620 16.377300 -0.000001 -0.000001 9.513200 -0.584844 3.943840 6.456720 -0.000001 -0.000000 4.921090 -0.357569 11.475400 12.994200 -0.242716 4.980390 -92.450900 6.983880 -70.607100 5.348090 -0.000007 -0.000001 -72.990200 27.335700 1.532960 24.328600 0.000019 0.000005 13.462900 29.984100 -25.595100 22.291600 -0.000001 0.000005 -4.145600 5.056550 6.092500 12.994500 -0.242716 -4.980390 87.810900 6.241510 -70.628600 -5.348130 -0.000001 -0.000004 -67.833500 -15.175900 -5.125450 -24.328900 0.000322 -0.000009 19.276900 -21.065900 -135.783000 -22.291500 -0.000108 -0.000004 64.564800 5.630830 -13.398200 -2.192480 -6.469440 -0.000000 -170.414000 6.538960 -4.533100 39.081100 -0.000007 -0.000012 0.409838 -0.721642 29.594300 40.985400 -0.000006 -0.000013 -0.118776 8.929720 -76.691500 11.754300 -0.000000 0.000003 0.000665 0.155567 -10.267600 -2.192510 6.469440 -0.000001 -169.001000 9.861980 -176.570000 -39.081100 -0.002282 -0.040193 0.136535 -0.467170 15.914800 -40.985400 0.000008 0.000006 5.976660 -0.291536 -70.889700 -11.754300 -0.000006 -0.000006 -0.008002 0.255721 -6.187940
0.000000 0.000000 0.000000 0.000000 0.000000 -0.000000 -4.621240 91.745300 -1.443000 83.535600 2.100470 5.102590 15.735700 0.000005 -0.000001 62.789200 86.667700 -60.615700 8.984550 -0.406207 -0.000000 -1.774920 -3.227630 4.296880 16.377300 -0.000001 -0.000001 9.498660 -0.631728 3.991460 6.456720 -0.000001 -0.000000 4.815820 -0.423549 11.601000 12.994200 -0.242716 4.980390 -92.453900 6.998290 -70.621600 5.348090 -0.000007 -0.000001 -72.974400 27.281300 1.543030 24.328600 0.000019 0.000005 13.448200 29.782800 -25.706600 22.291600 -0.000001 0.000005 -4.090550 5.056130 6.101800 12.994500 -0.242716 -4.980390 87.823400 6.191290 -70.587300 -5.348130 -0.000001 -0.000004 -68.530700 -16.114500 -5.570590 -24.328900 0.000322 -0.000009 13.522300 -15.331600 -137.711000 -22.291500 -0.000108 -0.000004 64.527900 5.555480 -8.969370 -2.192480 -6.469440 -0.000000 -170.377000 6.516050 -4.622260 39.081100 -0.000007 -0.000012 0.407982 -0.718481 29.590600 40.985400 -0.000006 -0.000013 -0.114900 8.976140 -76.647900 11.754300 -0.000000 0.000003 0.000713 0.154600 -10.306800 -2.192510 6.469440 -0.000001 -168.961000 9.853790 -176.625000 -39.081100 -0.002282 -0.040193 0.136457 -0.468520 15.862500 -40.985400 0.000008 0.000006 5.961470 -0.387429 -70.856100 -11.754300 -0.000006 -0.000006 -0.008220 0.257483 -6.115960
0.000000 0.000000 0.000000 0.000000 0.000000 -0.000000 -4.625740 91.754900 -1.456760 83.557800 2.141060 5.028310 15.735700 0.000005 -0.000001 62.595300 86.667200 -60.440200 8.984550 -0.406207 -0.000000 -1.784580 -3.246810 4.259610 16.377300 -0.000001 -0.000001 9.490590 -0.618111 3.927250 6.456720 -0.000001 -0.000000 4.774780 -0.449760 11.708400 12.994200 -0.242716 4.980390 -92.452500 6.985030 -70.598200 5.348090 -0.000007 -0.000001 -73.001500 27.273000 1.564320 24.328600 0.000019 0.000005 13.508200 29.798800 -25.799200 22.291600 -0.000001 0.000005 -4.169200 5.058120 6.057660 12.994500 -0.242716 -4.980390 87.816000 6.210230 -70.580600 -5.348130 -0.000001 -0.000004 -68.944300 -16.831000 -6.033890 -24.328900 0.000322 -0.000009 6.362380 -7.581190 -139.795000 -22.291500 -0.000108 -0.000004 65.462500 5.465300 -5.197210 -2.192480 -6.469440 -0.000000 -170.394000 6.522840 -4.686510 39.081100 -0.000007 -0.000012 0.411400 -0.725833 29.545500 40.985400 -0.000006 -0.000013 -0.115845 8.995020 -76.669100 11.754300 -0.000000 0.000003 0.000613 0.156579 -10.226500 -2.192510 6.469440 -0.000001 -168.980000 9.936370 -176.686000 -39.081100 -0.002282 -0.040193 0.134998 -0.465038 15.808900 -40.985400 0.000008 0.000006 5.964350 -0.365507 -70.840800 -11.754300 -0.000006 -0.000006 -0.008336 0.258424 -6.077530
0.000000 0.000000 0.000000 0.000000 0.000000 -0.000000 -4.625500 91.759000 -1.461400 83.561800 2.148900 4.980530 15.735700 0.000005 -0.000001 62.443800 86.653300 -60.284300 8.984550 -0.406207 -0.000000 -1.767430 -3.275320 4.268530 16.377300 -0.000001 -0.000001 9.507600 -0.589210 3.818440 6.456720 -0.000001 -0.000000 4.738220 -0.437410 11.627800 12.994200 -0.242716 4.980390 -92.453800 6.987710 -70.595800 5.348090 -0.000007 -0.000001 -73.049400 27.348900 1.605280 24.328600 0.000019 0.000005 13.559700 29.903300 -25.816500 22.291600 -0.000001 0.000005 -4.181930 5.060600 6.002680 12.994500 -0.242716 -4.980390 87.812100 6.203280 -70.528700 -5.348130 -0.000001 -0.000004 -69.291400 -17.503600 -6.565400 -24.328900 0.000322 -0.000009 -0.719052 0.888653 -141.032000 -22.291500 -0.000108 -0.000004 66.622000 5.385640 -2.476670 -2.192480 -6.469440 -0.000000 -170.394000 6.529740 -4.734700 39.081100 -0.000007 -0.000012 0.411263 -0.726155 29.526400 40.985400 -0.000006 -0.000013 -0.118808 8.991980 -76.644300 11.754300 -0.000000 0.000003 0.000659 0.155685 -10.262800 -2.192510 6.469440 -0.000001 -168.967000 9.898660 -176.736000 -39.081100 -0.002282 -0.040193 0.135327 -0.466623 15.795300 -40.985400 0.000008 0.000006 5.962330 -0.392025 -70.855800 -11.754300 -0.000006 -0.000006 -0.008528 0.259956 -6.014940
